<svg aria-hidden="true" style="position: absolute; width:0; height: 0; overflow: hidden;" version="1.1" xmlns="http://www.w3.org/2000/svg" xmlns:xlink="http://www.w3.org/1999/xlink">
  <defs>
    <symbol viewBox="0 0 200 50" id="1">
      <line x1="26" y1="25" x2="174" y2="25" stroke-width="1"/>
      <circle cx="20" cy="25" r="6"  fill="none" stroke-width="1"/>
      <circle cx="100" cy="25" r="4" />
      <circle cx="180" cy="25" r="6" fill="none" stroke-width="1"/>
    </symbol>

    <symbol viewBox="0 0 200 100" id="2">
      <line x1="26" y1="25" x2="174" y2="25" stroke-width="1"/>
      <circle cx="20" cy="25" r="6"  fill="none" stroke-width="1"/>
      <circle cx="100" cy="25" r="4" />
      <circle cx="180" cy="25" r="6" fill="none" stroke-width="1"/>
      <line x1="100" y1="30" x2="100" y2="50" stroke-width="1" />
      <line x1="75" y1="50" x2="125" y2="50" stroke-width="1" />
      <line x1="85" y1="60" x2="115" y2="60" stroke-width="1" />
      <line x1="95" y1="70" x2="105" y2="70" stroke-width="1" />
    </symbol>

    <symbol viewBox="0 0 200 50" id="3">
      <line x1="26" y1="25" x2="174" y2="25" stroke-width="1"/>
      <circle cx="20" cy="25" r="6"  fill="none" stroke-width="1"/>
      <circle cx="55" cy="25" r="4" />
      <circle cx="90" cy="25" r="4" />
      <circle cx="180" cy="25" r="6" fill="none" stroke-width="1"/>
    </symbol>


    <symbol viewBox="0 0 200 50" id="4">
      <line x1="26" y1="25" x2="152" y2="25" stroke-width="1"/>
      <circle cx="20" cy="25" r="6"  fill="none" stroke-width="1"/>
      <circle cx="90" cy="25" r="4" />
      <circle cx="158" cy="25" r="6" fill="none" stroke-width="1"/>
       <line x1="164" y1="25" x2="186" y2="25" stroke-width="1"/>
      <circle cx="192" cy="25" r="6" fill="none" stroke-width="1"/>
    </symbol>


    <symbol viewBox="0 0 200 50" id="5">
      <line x1="26" y1="25" x2="152" y2="25" stroke-width="1"/>
      <circle cx="20" cy="25" r="6"  fill="none" stroke-width="1"/>
      <circle cx="90" cy="25" r="4" />
      <circle cx="120" cy="25" r="4" />
      <circle cx="158" cy="25" r="6" fill="none" stroke-width="1"/>
       <line x1="164" y1="25" x2="186" y2="25" stroke-width="1"/>
      <circle cx="192" cy="25" r="6" fill="none" stroke-width="1"/>
    </symbol>

    <symbol viewBox="0 0 200 50" id="6">
      <line x1="26" y1="25" x2="48" y2="25" stroke-width="1"/>
      <line x1="60" y1="25" x2="152" y2="25" stroke-width="1"/>
      <circle cx="20" cy="25" r="6"  fill="none" stroke-width="1"/>
      <circle cx="54" cy="25" r="6"  fill="none" stroke-width="1"/>
      <circle cx="90" cy="25" r="4" />
      <circle cx="120" cy="25" r="4" />
      <circle cx="158" cy="25" r="6" fill="none" stroke-width="1"/>
       <line x1="164" y1="25" x2="186" y2="25" stroke-width="1"/>
      <circle cx="192" cy="25" r="6" fill="none" stroke-width="1"/>
    </symbol>
    <symbol viewBox="0 0 200 50" id="7">
      <line x1="26" y1="25" x2="48" y2="25" stroke-width="1"/>
      <line x1="60" y1="25" x2="152" y2="25" stroke-width="1"/>
      <circle cx="20" cy="25" r="6"  fill="none" stroke-width="1"/>
      <circle cx="54" cy="25" r="6"  fill="none" stroke-width="1"/>
      <circle cx="90" cy="25" r="4" />
      <circle cx="158" cy="25" r="6" fill="none" stroke-width="1"/>
       <line x1="164" y1="25" x2="186" y2="25" stroke-width="1"/>
      <circle cx="192" cy="25" r="6" fill="none" stroke-width="1"/>
    </symbol>
    <symbol viewBox="0 0 200 50" id="8">
      <line x1="26" y1="25" x2="48" y2="25" stroke-width="1"/>
      <line x1="60" y1="25" x2="152" y2="25" stroke-width="1"/>
      <circle cx="20" cy="25" r="6"  fill="none" stroke-width="1"/>
      <circle cx="54" cy="25" r="6"  fill="none" stroke-width="1"/>
      <circle cx="106" cy="25" r="4" />
      <circle cx="158" cy="25" r="6" fill="none" stroke-width="1"/>
       <line x1="164" y1="25" x2="186" y2="25" stroke-width="1"/>
      <circle cx="192" cy="25" r="6" fill="none" stroke-width="1"/>
      <line x1="106" y1="30" x2="106" y2="50" stroke-width="1" />
      <line x1="81" y1="50" x2="131" y2="50" stroke-width="1" />
      <line x1="91" y1="60" x2="121" y2="60" stroke-width="1" />
      <line x1="101" y1="70" x2="111" y2="70" stroke-width="1" />
    </symbol>
    <symbol viewBox="0 0 200 75" id="9">
      <circle cx="20" cy="50" r="6"  fill="none" stroke-width="1"/>
      <line x1="26" y1="50" x2="70" y2="50" stroke-width="1"/>
      <line x1="70" y1="50" x2="70" y2="13" stroke-width="1"/>
      <circle cx="70" cy="10" r="3"  fill="none" stroke-width="1"/>
      <line x1="73" y1="10" x2="130" y2="0" stroke-width="1"/>
      <line x1="130" y1="10" x2="139" y2="10" stroke-width="1"/>
      <circle cx="142" cy="10" r="3"  fill="none" stroke-width="1"/>
      <line x1="142" y1="50" x2="142" y2="13" stroke-width="1"/>
      <circle cx="166" cy="50" r="4" />
      <line x1="142" y1="50" x2="186" y2="50" stroke-width="1"/>
      <circle cx="192" cy="50" r="6" fill="none" stroke-width="1"/>
    </symbol>
    <symbol viewBox="0 0 200 75" id="10">
      <circle cx="20" cy="50" r="6"  fill="none" stroke-width="1"/>
      <line x1="26" y1="50" x2="67" y2="50" stroke-width="1"/>
      <line x1="70" y1="47" x2="70" y2="13" stroke-width="1"/>
      <circle cx="70" cy="50" r="3"  fill="none" stroke-width="1"/>
      <path d="M 76,7 A 6,6 0 0,1 64,7" fill="none"  stroke-width="1"/>
      <path d="M 148,7 A 6,6 0 0,1 136,7" fill="none" stroke-width="1"/>
      <circle cx="142" cy="50" r="3"  fill="none" stroke-width="1"/>
      <line x1="142" y1="47" x2="142" y2="13" stroke-width="1"/>
      <line x1="145" y1="50" x2="186" y2="50" stroke-width="1"/>
      <circle cx="192" cy="50" r="6" fill="none" stroke-width="1"/>
    </symbol>
    <symbol viewBox="0 0 200 75" id="11">
      <circle cx="20" cy="50" r="6"  fill="none" stroke-width="1"/>
      <line x1="26" y1="50" x2="48" y2="50" stroke-width="1"/>
      <circle cx="54" cy="50" r="6"  fill="none" stroke-width="1"/>
      <line x1="60" y1="50" x2="82" y2="50" stroke-width="1"/>

      <line x1="85" y1="47" x2="85" y2="13" stroke-width="1"/>
      <circle cx="85" cy="50" r="3"  fill="none" stroke-width="1"/>
      <path d="M 91,7 A 6,6 0 0,1 79,7" fill="none"  stroke-width="1"/>

      <path d="M 133,7 A 6,6 0 0,1 121,7" fill="none" stroke-width="1"/>
      <circle cx="127" cy="50" r="3"  fill="none" stroke-width="1"/>
      <line x1="127" y1="47" x2="127" y2="13" stroke-width="1"/>

      <line x1="130" y1="50" x2="152" y2="50" stroke-width="1"/>
      <circle cx="158" cy="50" r="6" fill="none" stroke-width="1"/>
      <line x1="164" y1="50" x2="186" y2="50" stroke-width="1"/>
      <circle cx="192" cy="50" r="6" fill="none" stroke-width="1"/>
    </symbol>
    <symbol viewBox="0 0 200 50" id="12">
      <line x1="26" y1="25" x2="174" y2="25" stroke-width="1"/>
      <circle cx="20" cy="25" r="6"  fill="none" stroke-width="1"/>
      <circle cx="180" cy="25" r="6" fill="none" stroke-width="1"/>
    </symbol>
    <symbol viewBox="0 0 200 50" id="13">
      <line x1="26" y1="25" x2="174" y2="25" stroke-width="1"/>
      <circle cx="20" cy="25" r="6"  fill="none" stroke-width="1"/>
      <circle cx="60" cy="25" r="4" />
      <circle cx="180" cy="25" r="6" fill="none" stroke-width="1"/>
    </symbol>
  </defs>
</svg>
