<svg aria-hidden="true" style="position: absolute; width:0; height: 0; overflow: hidden;" version="1.1" xmlns="http://www.w3.org/2000/svg" xmlns:xlink="http://www.w3.org/1999/xlink">
  <defs>

    <symbol viewBox="0 0 200 43" id="logo">
      <!-- <svg width="200" height="43" viewBox="0 0 200 43" fill="none" xmlns="http://www.w3.org/2000/svg"> -->
      <path d="M165.155 27.4722L175.394 0H178.833L163.244 41.9977L146.484 0H153.986L165.155 27.4722ZM175.28 35.7612L177.305 32.7088C178.094 34.6955 180.119 36.998 181.329 37.8401C182.526 38.6821 184.042 39.1032 185.863 39.1032C187.684 39.1032 189.251 38.4585 190.664 37.1559C192.078 35.8533 192.791 33.9324 192.791 31.972C192.791 28.8142 191.237 26.4065 188.143 24.7618C185.239 23.3935 182.348 22.0383 179.482 20.6699C176.337 18.6306 174.77 15.6176 174.77 11.6573C174.77 8.40744 175.929 5.65759 178.234 3.39455C180.527 1.14468 183.481 0 187.085 0C189.531 0 191.81 0.631545 193.95 1.89463C196.077 3.15772 197.656 4.89447 198.662 7.09172L196.612 9.84157C195.758 7.30224 194.319 5.38129 193.199 4.46029C191.836 3.3814 190.193 2.84195 188.257 2.84195C186.321 2.84195 184.844 3.51297 183.698 4.855C182.552 6.19703 181.979 8.11798 181.979 10.0389C181.979 12.5256 183.532 14.5518 186.627 16.1044C189.493 17.5517 192.384 18.9727 195.287 20.3673C198.433 22.6172 199.999 25.7486 199.999 29.801C199.999 33.2877 198.726 36.1823 196.191 38.4848C193.657 40.7873 190.715 41.9319 187.378 41.9319C184.666 41.9319 182.284 41.4583 180.246 40.4978C178.209 39.5373 176.553 37.9585 175.28 35.7481" fill="#409FFF"/>
      <path d="M18.6704 27.4722L28.9098 0H32.3357L16.7601 42.0109L0 0H7.50127L18.6704 27.4722Z" fill="#409FFF"/>
      <path d="M50.4221 13.2231V15.144H40.2845C39.8643 15.144 39.5459 15.2361 39.3294 15.4203C39.1129 15.5914 39.011 15.9203 39.011 16.4071V24.6567H48.3971V27.2355H39.011V35.7876C39.011 37.0244 39.686 37.6428 41.0359 37.6428H51.1098V39.5637H37.7374C36.4257 39.5637 35.4195 39.2085 34.7318 38.4849C34.0314 37.7744 33.6875 36.5902 33.6875 34.9587V18.6307C33.6875 16.4729 34.0696 15.0388 34.8464 14.3283C35.6233 13.6046 36.7823 13.2494 38.3233 13.2494H50.4221V13.2231ZM75.8933 18.3675L73.69 19.499C72.9514 17.9465 72.0089 16.736 70.85 15.8545C69.6911 14.973 68.3411 14.5388 66.8001 14.5388C64.253 14.5388 62.3426 15.7756 61.0691 18.2491C59.9865 20.3148 59.4516 22.9199 59.4516 26.025C59.4516 29.4196 59.9101 32.1299 60.8398 34.1561C62.1134 36.9455 64.202 38.3401 67.093 38.3401C68.7868 38.3401 70.2769 37.7481 71.5505 36.5376C72.2891 35.8666 73.2316 34.6035 74.3905 32.7746L76.3008 33.6167C75.2183 35.6824 73.9702 37.2481 72.5438 38.2875C70.6844 39.6427 68.4302 40.3269 65.7685 40.3269C62.1388 40.3269 59.146 39.0243 56.7899 36.4323C54.4338 33.8404 53.2621 30.4853 53.2621 26.3802C53.2621 22.591 54.4211 19.3806 56.739 16.7492C59.2097 13.9599 62.3171 12.5652 66.0614 12.5652C68.3411 12.5652 70.3024 13.131 71.9707 14.2362C73.2061 15.0782 74.5179 16.4466 75.906 18.3675M77.4725 15.144V13.2231H93.2265V15.144H88.0176V39.5506H82.6941V15.144H77.4853H77.4725ZM107.758 12.5652C111.235 12.5652 114.317 13.9599 117.029 16.7492C119.729 19.5385 121.079 22.7752 121.079 26.446C121.079 30.5116 119.92 33.8009 117.602 36.3139C115.132 38.9848 111.846 40.3269 107.758 40.3269C104.281 40.3269 101.199 38.9322 98.4863 36.1297C95.7863 33.3404 94.4364 30.1169 94.4364 26.446C94.4364 22.3805 95.5953 19.0912 97.9132 16.5781C100.384 13.9072 103.657 12.5652 107.758 12.5652ZM107.758 14.5388C105.873 14.5388 104.243 15.5782 102.893 17.657C101.428 19.8938 100.69 22.8278 100.69 26.446C100.69 30.0643 101.428 32.9588 102.893 35.235C104.243 37.3139 105.86 38.3401 107.758 38.3401C109.655 38.3401 111.298 37.2612 112.712 35.1166C114.126 32.9588 114.826 30.0774 114.826 26.446C114.826 22.8146 114.126 19.9727 112.712 17.8018C111.298 15.6308 109.655 14.5388 107.758 14.5388ZM130.797 39.5506H125.524V13.2231H136.642C138.845 13.2231 140.679 13.8678 142.144 15.144C143.609 16.4203 144.347 18.1307 144.347 20.2885C144.347 22.1963 143.889 23.6304 142.959 24.5909C142.182 25.3935 140.819 26.1039 138.845 26.7486L145.735 39.5506H139.597L133.229 26.3934H133.802C135.623 26.3934 136.935 25.8803 137.776 24.8672C138.603 23.8541 139.024 22.3805 139.024 20.4727C139.024 18.9596 138.642 17.736 137.865 16.8281C136.935 15.7098 135.432 15.1572 133.344 15.1572H130.797V39.5637V39.5506Z" fill="#409FFF"/>
      <!-- </svg> -->
    </symbol>


  </defs>
</svg>
